<svg width="161" height="90" viewBox="0 0 161 90" fill="none" xmlns="http://www.w3.org/2000/svg">
<path fill-rule="evenodd" clip-rule="evenodd" d="M24.421 82.7943L26.518 90.0001H34.0227H50.25H57.711L59.8358 82.848L63.1022 71.8538L66.3686 82.848L68.4935 90.0001H75.9545H86.2841H92.2159H96.2841H99.7241H113.159H123.159V80.0001V68.3183H124.614C131.182 68.3183 137.417 67.1001 142.989 64.2651C148.498 61.4623 152.951 57.3717 156.059 52.0379C159.192 46.6766 160.591 40.6689 160.591 34.3523C160.591 28.0871 159.228 22.1235 156.175 16.7841C153.141 11.4544 148.793 7.30935 143.372 4.43012C138.043 1.56593 132.086 0.274673 125.817 0.186726L125.819 0.181885H125.125H112.5H96.2841H93.8863H86.2841H85.929L84.1418 7.93594L82.4174 15.4178L80.3769 7.64333L78.4187 0.181885H70.7045H55.5H47.7902L45.829 7.63802L43.8022 15.3429L42.0973 7.93806L40.3114 0.181885H32.3522H13.7045H0.379517L4.10284 12.9761L24.421 82.7943ZM86.2841 43.166L83.3555 55.8723L83.3181 56.0342H82.7386L82.7013 55.892L77.5833 36.3914L70.7045 10.1819H55.5L48.6287 36.3044L43.5032 55.7898L43.4659 55.9319H42.8863L42.849 55.7696L38.3304 36.1453L32.3522 10.1819H24.1194H13.7045L16.6147 20.1819L34.0227 80.0001H50.25L57.8862 54.2975L62.7767 37.8369L62.8295 37.6592H63.375L63.4278 37.8369L68.3183 54.2975L75.9545 80.0001H86.2841V43.166ZM102.629 80.0001H103.159H106.284H113.159V70.0001V68.3183V58.3183H116.818H123.159H124.614C129.955 58.3183 134.568 57.3296 138.455 55.3523C142.341 53.3751 145.33 50.591 147.42 47.0001C149.534 43.3864 150.591 39.1705 150.591 34.3523C150.591 29.5569 149.557 25.3523 147.489 21.7387C145.42 18.1023 142.477 15.2728 138.659 13.2501C134.864 11.2046 130.352 10.1819 125.125 10.1819H122.913L122.103 12.9718L118.962 23.7842H121.477C122.059 23.7842 122.62 23.8071 123.159 23.8531C124.959 24.0063 126.523 24.4151 127.852 25.0796C129.58 25.9433 130.886 27.1705 131.773 28.7614C132.659 30.3296 133.102 32.1932 133.102 34.3523C133.102 36.4887 132.659 38.3637 131.773 39.9773C130.886 41.5682 129.58 42.8069 127.852 43.6932C126.538 44.3767 124.973 44.7967 123.159 44.9531C122.62 44.9996 122.06 45.0228 121.477 45.0228H116.818H113.159V43.7567L102.629 80.0001ZM112.5 10.1819L109.595 20.1819L96.2841 65.9973V20.1819V10.1819H102.086H106.284H112.5Z" fill="black"/>
</svg>
