<svg width="44" height="45" viewBox="0 0 44 45" fill="none" xmlns="http://www.w3.org/2000/svg">
<path d="M40.7465 0.000314615H3.25352C2.83206 -0.0056357 2.41358 0.0728705 2.02198 0.23135C1.63037 0.389829 1.27331 0.625177 0.971181 0.923954C0.669056 1.22273 0.427786 1.57908 0.261149 1.97266C0.0945123 2.36623 0.0057731 2.78933 0 3.21777V41.7822C0.0057731 42.2107 0.0945123 42.6338 0.261149 43.0273C0.427786 43.4209 0.669056 43.7773 0.971181 44.076C1.27331 44.3748 1.63037 44.6102 2.02198 44.7686C2.41358 44.9271 2.83206 45.0056 3.25352 44.9997H40.7465C41.1679 45.0056 41.5864 44.9271 41.978 44.7686C42.3696 44.6102 42.7267 44.3748 43.0288 44.076C43.3309 43.7773 43.5722 43.4209 43.7388 43.0273C43.9055 42.6338 43.9942 42.2107 44 41.7822V3.21777C43.9942 2.78933 43.9055 2.36623 43.7388 1.97266C43.5722 1.57908 43.3309 1.22273 43.0288 0.923954C42.7267 0.625177 42.3696 0.389829 41.978 0.23135C41.5864 0.0728705 41.1679 -0.0056357 40.7465 0.000314615ZM13.3461 37.6648H6.70624V17.4151H13.3461V37.6648ZM10.0262 14.5801C9.11044 14.5801 8.23223 14.2103 7.58472 13.5521C6.93721 12.8938 6.57344 12.0011 6.57344 11.0702C6.57344 10.1393 6.93721 9.24649 7.58472 8.58825C8.23223 7.93001 9.11044 7.56021 10.0262 7.56021C10.5124 7.50415 11.0048 7.55313 11.4712 7.70394C11.9375 7.85476 12.3672 8.104 12.7322 8.43536C13.0972 8.76672 13.3893 9.17271 13.5893 9.62676C13.7892 10.0808 13.8926 10.5727 13.8926 11.0702C13.8926 11.5676 13.7892 12.0595 13.5893 12.5136C13.3893 12.9676 13.0972 13.3736 12.7322 13.705C12.3672 14.0363 11.9375 14.2856 11.4712 14.4364C11.0048 14.5872 10.5124 14.6362 10.0262 14.5801ZM37.2938 37.6648H30.6539V26.7974C30.6539 24.075 29.7022 22.2975 27.2897 22.2975C26.5431 22.3031 25.8161 22.5411 25.2067 22.9796C24.5972 23.4181 24.1347 24.036 23.8813 24.75C23.7081 25.2788 23.633 25.8357 23.66 26.3924V37.6423H17.0201V17.3926H23.66V20.25C24.2631 19.186 25.1404 18.3095 26.1974 17.7148C27.2543 17.1201 28.4508 16.8297 29.6579 16.8751C34.0845 16.8751 37.2938 19.7775 37.2938 26.01V37.6648Z" fill="black"/>
</svg>
