<svg width="257" height="257" viewBox="0 0 257 257" fill="none" xmlns="http://www.w3.org/2000/svg">
<rect width="257" height="257" rx="128.5" fill="black"/>
<path d="M97.2869 223V219.966L103.653 214.392C104.131 213.96 104.537 213.565 104.872 213.207C105.207 212.844 105.463 212.48 105.639 212.116C105.815 211.747 105.903 211.347 105.903 210.915C105.903 210.432 105.798 210.02 105.588 209.679C105.378 209.332 105.088 209.065 104.719 208.878C104.349 208.69 103.926 208.597 103.449 208.597C102.966 208.597 102.543 208.696 102.179 208.895C101.815 209.088 101.531 209.369 101.327 209.739C101.128 210.108 101.028 210.557 101.028 211.085H97.0312C97.0312 209.898 97.2983 208.872 97.8324 208.009C98.3665 207.145 99.1165 206.48 100.082 206.014C101.054 205.543 102.182 205.307 103.466 205.307C104.79 205.307 105.94 205.528 106.918 205.972C107.895 206.415 108.651 207.034 109.185 207.83C109.724 208.619 109.994 209.537 109.994 210.582C109.994 211.247 109.861 211.906 109.594 212.56C109.327 213.213 108.847 213.935 108.153 214.724C107.466 215.514 106.489 216.46 105.222 217.562L103.134 219.489V219.599H110.207V223H97.2869ZM119.81 223.426C118.288 223.426 116.975 223.065 115.873 222.344C114.771 221.616 113.921 220.574 113.325 219.216C112.728 217.852 112.433 216.213 112.438 214.298C112.444 212.384 112.742 210.759 113.333 209.423C113.93 208.082 114.776 207.062 115.873 206.364C116.975 205.659 118.288 205.307 119.81 205.307C121.333 205.307 122.646 205.659 123.748 206.364C124.856 207.062 125.708 208.082 126.305 209.423C126.901 210.764 127.197 212.389 127.191 214.298C127.191 216.219 126.893 217.861 126.296 219.224C125.7 220.588 124.85 221.631 123.748 222.352C122.651 223.068 121.339 223.426 119.81 223.426ZM119.81 219.974C120.719 219.974 121.455 219.511 122.018 218.585C122.58 217.653 122.859 216.224 122.853 214.298C122.853 213.037 122.725 211.997 122.469 211.179C122.214 210.355 121.859 209.741 121.404 209.338C120.95 208.935 120.418 208.733 119.81 208.733C118.907 208.733 118.177 209.19 117.62 210.105C117.063 211.014 116.782 212.412 116.776 214.298C116.771 215.577 116.893 216.636 117.143 217.477C117.398 218.318 117.756 218.946 118.217 219.361C118.677 219.77 119.208 219.974 119.81 219.974ZM129.607 223V219.966L135.974 214.392C136.451 213.96 136.857 213.565 137.192 213.207C137.528 212.844 137.783 212.48 137.96 212.116C138.136 211.747 138.224 211.347 138.224 210.915C138.224 210.432 138.119 210.02 137.908 209.679C137.698 209.332 137.408 209.065 137.039 208.878C136.67 208.69 136.246 208.597 135.769 208.597C135.286 208.597 134.863 208.696 134.499 208.895C134.136 209.088 133.852 209.369 133.647 209.739C133.448 210.108 133.349 210.557 133.349 211.085H129.352C129.352 209.898 129.619 208.872 130.153 208.009C130.687 207.145 131.437 206.48 132.403 206.014C133.374 205.543 134.502 205.307 135.786 205.307C137.11 205.307 138.261 205.528 139.238 205.972C140.215 206.415 140.971 207.034 141.505 207.83C142.045 208.619 142.315 209.537 142.315 210.582C142.315 211.247 142.181 211.906 141.914 212.56C141.647 213.213 141.167 213.935 140.474 214.724C139.786 215.514 138.809 216.46 137.542 217.562L135.454 219.489V219.599H142.528V223H129.607ZM152.131 223.426C150.608 223.426 149.295 223.065 148.193 222.344C147.091 221.616 146.241 220.574 145.645 219.216C145.048 217.852 144.753 216.213 144.759 214.298C144.764 212.384 145.063 210.759 145.653 209.423C146.25 208.082 147.097 207.062 148.193 206.364C149.295 205.659 150.608 205.307 152.131 205.307C153.653 205.307 154.966 205.659 156.068 206.364C157.176 207.062 158.028 208.082 158.625 209.423C159.222 210.764 159.517 212.389 159.511 214.298C159.511 216.219 159.213 217.861 158.616 219.224C158.02 220.588 157.17 221.631 156.068 222.352C154.972 223.068 153.659 223.426 152.131 223.426ZM152.131 219.974C153.04 219.974 153.776 219.511 154.338 218.585C154.901 217.653 155.179 216.224 155.173 214.298C155.173 213.037 155.045 211.997 154.79 211.179C154.534 210.355 154.179 209.741 153.724 209.338C153.27 208.935 152.739 208.733 152.131 208.733C151.227 208.733 150.497 209.19 149.94 210.105C149.384 211.014 149.102 212.412 149.097 214.298C149.091 215.577 149.213 216.636 149.463 217.477C149.719 218.318 150.077 218.946 150.537 219.361C150.997 219.77 151.528 219.974 152.131 219.974Z" fill="#505050"/>
<path fill-rule="evenodd" clip-rule="evenodd" d="M70.421 165.794L72.518 173H80.0227H96.25H103.711L105.836 165.848L109.102 154.854L112.369 165.848L114.494 173H121.955H132.284H138.216H142.284H145.724H159.159H169.159V163V151.318H170.614C177.182 151.318 183.417 150.1 188.989 147.265C194.498 144.462 198.951 140.372 202.059 135.038C205.192 129.677 206.591 123.669 206.591 117.352C206.591 111.087 205.228 105.123 202.175 99.7841C199.141 94.4543 194.793 90.3093 189.372 87.4301C184.043 84.5659 178.086 83.2746 171.817 83.1867L171.819 83.1818H171.125H158.5H142.284H139.886H132.284H131.929L130.142 90.9359L128.417 98.4177L126.377 90.6433L124.419 83.1818H116.705H101.5H93.7902L91.829 90.638L89.8022 98.3429L88.0973 90.938L86.3114 83.1818H78.3522H59.7045H46.3795L50.1028 95.9761L70.421 165.794ZM132.284 126.166L129.355 138.872L129.318 139.034H128.739L128.701 138.892L123.583 119.391L116.705 93.1818H101.5L94.6287 119.304L89.5032 138.79L89.4659 138.932H88.8863L88.849 138.77L84.3304 119.145L78.3522 93.1818H70.1194H59.7045L62.6147 103.182L80.0227 163H96.25L103.886 137.297L108.777 120.837L108.83 120.659H109.375L109.428 120.837L114.318 137.297L121.955 163H132.284V126.166ZM148.629 163H149.159H152.284H159.159V153V151.318V141.318H162.818H169.159H170.614C175.955 141.318 180.568 140.33 184.455 138.352C188.341 136.375 191.33 133.591 193.42 130C195.534 126.386 196.591 122.17 196.591 117.352C196.591 112.557 195.557 108.352 193.489 104.739C191.42 101.102 188.477 98.2727 184.659 96.25C180.864 94.2046 176.352 93.1818 171.125 93.1818H168.913L168.103 95.9717L164.962 106.784H167.477C168.059 106.784 168.62 106.807 169.159 106.853C170.959 107.006 172.523 107.415 173.852 108.08C175.58 108.943 176.886 110.17 177.773 111.761C178.659 113.33 179.102 115.193 179.102 117.352C179.102 119.489 178.659 121.364 177.773 122.977C176.886 124.568 175.58 125.807 173.852 126.693C172.538 127.377 170.973 127.797 169.159 127.953C168.62 128 168.06 128.023 167.477 128.023H162.818H159.159V126.757L148.629 163ZM158.5 93.1818L155.595 103.182L142.284 148.997V103.182V93.1818H148.086H152.284H158.5Z" fill="#C9C9C9"/>
</svg>
